<svg version="1.0" xmlns="http://www.w3.org/2000/svg"
 width="32.000000pt" height="32.000000pt" viewBox="0 0 32.000000 32.000000"
 preserveAspectRatio="xMidYMid meet">

<g transform="translate(0.000000,32.000000) scale(0.100000,-0.100000)"
fill="#000000" stroke="none">
<path d="M51 211 c-8 -5 -17 -31 -21 -58 l-6 -49 33 -1 c18 -1 35 3 38 8 3 5
15 3 25 -4 22 -13 50 -2 58 24 4 11 2 12 -9 2 -7 -7 -19 -13 -26 -13 -18 0
-16 29 2 36 8 4 15 10 15 15 0 5 -7 9 -15 9 -8 0 -15 4 -15 10 0 20 52 6 61
-17 5 -13 14 -35 20 -50 9 -26 11 -26 21 -10 9 17 11 17 22 2 11 -15 14 -12
29 27 21 54 22 78 2 78 -11 0 -13 -7 -9 -29 8 -40 -12 -48 -25 -10 -13 37 -30
31 -24 -8 4 -26 3 -26 -14 7 -28 54 -93 51 -93 -5 0 -27 -34 -59 -55 -52 -22
9 -21 77 1 77 14 0 14 -3 4 -15 -7 -8 -8 -15 -2 -15 15 0 35 28 27 40 -8 12
-25 13 -44 1z"/>
</g>
</svg>
